<svg width="97" height="96" viewBox="0 0 97 96" fill="none" xmlns="http://www.w3.org/2000/svg">
<path d="M66.6838 35.8162C67.1033 36.2343 67.4361 36.7311 67.6633 37.2781C67.8904 37.8251 68.0073 38.4115 68.0073 39.0037C68.0073 39.596 67.8904 40.1824 67.6633 40.7294C67.4361 41.2764 67.1033 41.7732 66.6838 42.1912L45.6838 63.1912C45.2657 63.6108 44.7689 63.9436 44.222 64.1708C43.675 64.3979 43.0885 64.5148 42.4963 64.5148C41.904 64.5148 41.3176 64.3979 40.7706 64.1708C40.2236 63.9436 39.7268 63.6108 39.3088 63.1912L30.3088 54.1912C29.8902 53.7727 29.5581 53.2757 29.3316 52.7288C29.1051 52.1819 28.9885 51.5957 28.9885 51.0037C28.9885 50.4118 29.1051 49.8256 29.3316 49.2787C29.5581 48.7318 29.8902 48.2348 30.3088 47.8162C30.7274 47.3977 31.2243 47.0656 31.7712 46.8391C32.3181 46.6125 32.9043 46.4959 33.4963 46.4959C34.0882 46.4959 34.6744 46.6125 35.2213 46.8391C35.7682 47.0656 36.2652 47.3977 36.6838 47.8162L42.5 53.625L60.3163 35.805C60.7349 35.3873 61.2318 35.0563 61.7785 34.8308C62.3252 34.6053 62.911 34.4898 63.5023 34.4908C64.0937 34.4919 64.6791 34.6095 65.225 34.8369C65.7709 35.0643 66.2666 35.3971 66.6838 35.8162ZM89 48C89 56.0101 86.6247 63.8404 82.1745 70.5006C77.7243 77.1608 71.3991 82.3518 63.9987 85.4171C56.5983 88.4825 48.4551 89.2845 40.5989 87.7218C32.7426 86.1591 25.5262 82.3019 19.8622 76.6378C14.1982 70.9738 10.3409 63.7574 8.77821 55.9012C7.21551 48.0449 8.01755 39.9017 11.0829 32.5013C14.1482 25.1009 19.3392 18.7757 25.9994 14.3255C32.6596 9.87528 40.4899 7.5 48.5 7.5C59.2376 7.51191 69.532 11.7827 77.1247 19.3753C84.7173 26.968 88.9881 37.2624 89 48ZM80 48C80 41.7699 78.1526 35.6797 74.6913 30.4995C71.23 25.3194 66.3104 21.282 60.5545 18.8978C54.7987 16.5136 48.4651 15.8898 42.3547 17.1053C36.2443 18.3207 30.6315 21.3208 26.2262 25.7261C21.8208 30.1315 18.8207 35.7443 17.6053 41.8547C16.3898 47.9651 17.0137 54.2987 19.3978 60.0545C21.782 65.8104 25.8194 70.73 30.9996 74.1913C36.1797 77.6526 42.2699 79.5 48.5 79.5C56.8516 79.4911 64.8586 76.1695 70.764 70.264C76.6695 64.3585 79.9911 56.3516 80 48Z" fill="#33D4AF"/>
</svg>
