<svg width="96" height="96" viewBox="0 0 96 96" fill="none" xmlns="http://www.w3.org/2000/svg">
<g id="CloudArrowUp">
<path id="Vector" d="M73.6838 56.8162C74.5292 57.6616 75.0041 58.8082 75.0041 60.0037C75.0041 61.1993 74.5292 62.3459 73.6838 63.1912C72.8384 64.0366 71.6919 64.5116 70.4963 64.5116C69.3008 64.5116 68.1542 64.0366 67.3088 63.1912L63.0001 58.875V78C63.0001 79.1935 62.526 80.3381 61.682 81.182C60.8381 82.0259 59.6935 82.5 58.5001 82.5C57.3066 82.5 56.162 82.0259 55.3181 81.182C54.4742 80.3381 54.0001 79.1935 54.0001 78V58.875L49.6838 63.195C48.8384 64.0404 47.6919 64.5153 46.4963 64.5153C45.3008 64.5153 44.1542 64.0404 43.3088 63.195C42.4634 62.3496 41.9885 61.203 41.9885 60.0075C41.9885 58.812 42.4634 57.6654 43.3088 56.82L55.3088 44.82C55.7269 44.4005 56.2237 44.0676 56.7706 43.8405C57.3176 43.6134 57.9041 43.4965 58.4963 43.4965C59.0886 43.4965 59.675 43.6134 60.222 43.8405C60.769 44.0676 61.2658 44.4005 61.6838 44.82L73.6838 56.8162ZM60.0001 13.5C53.7718 13.503 47.6604 15.1905 42.313 18.3837C36.9657 21.5769 32.5816 26.157 29.6251 31.6388C26.1819 31.2781 22.7013 31.6224 19.3955 32.6506C16.0897 33.6787 13.0279 35.3693 10.3966 37.6192C7.76538 39.8692 5.61984 42.6313 4.09076 45.7374C2.56168 48.8434 1.68109 52.2283 1.50265 55.6857C1.32421 59.1431 1.85166 62.6007 3.05285 65.8476C4.25405 69.0946 6.10383 72.0629 8.48947 74.5718C10.8751 77.0806 13.7466 79.0774 16.929 80.4405C20.1114 81.8035 23.5381 82.5042 27.0001 82.5H37.5001C38.6935 82.5 39.8381 82.0259 40.6821 81.182C41.526 80.3381 42.0001 79.1935 42.0001 78C42.0001 76.8065 41.526 75.6619 40.6821 74.818C39.8381 73.9741 38.6935 73.5 37.5001 73.5H27.0001C22.7004 73.4737 18.5808 71.7699 15.5185 68.7516C12.4562 65.7332 10.6931 61.6387 10.6047 57.3398C10.5162 53.0409 12.1093 48.8773 15.0448 45.7355C17.9804 42.5938 22.0263 40.722 26.3213 40.5188C25.7747 42.9749 25.4993 45.4837 25.5001 48C25.5001 49.1935 25.9742 50.3381 26.8181 51.182C27.662 52.0259 28.8066 52.5 30.0001 52.5C31.1935 52.5 32.3381 52.0259 33.1821 51.182C34.026 50.3381 34.5001 49.1935 34.5001 48C34.5032 44.3112 35.3066 40.6669 36.8548 37.3187C38.403 33.9705 40.6593 30.9981 43.4678 28.6066C46.2764 26.215 49.5704 24.4613 53.1225 23.4664C56.6746 22.4715 60.4003 22.2591 64.0425 22.8439C67.6847 23.4286 71.1566 24.7967 74.2188 26.8536C77.2809 28.9104 79.8604 31.6072 81.7791 34.7577C83.6978 37.9083 84.9101 41.4376 85.3324 45.1022C85.7547 48.7668 85.3769 52.4794 84.2251 55.9837C84.0402 56.5451 83.9676 57.1375 84.0116 57.7269C84.0556 58.3163 84.2153 58.8913 84.4815 59.4191C84.7477 59.9468 85.1153 60.4169 85.5632 60.8026C86.0111 61.1883 86.5305 61.482 87.0919 61.6669C87.6533 61.8518 88.2457 61.9243 88.8351 61.8803C89.4245 61.8363 89.9995 61.6767 90.5273 61.4104C91.055 61.1442 91.5251 60.7767 91.9108 60.3288C92.2965 59.8809 92.5901 59.3614 92.7751 58.8C94.4783 53.6168 94.9289 48.1037 94.0897 42.7128C93.2506 37.3218 91.1457 32.2065 87.9476 27.7862C84.7495 23.366 80.5492 19.7666 75.6913 17.2833C70.8333 14.8 65.4559 13.5035 60.0001 13.5Z" fill="#A1A5A9"/>
</g>
</svg>
