<svg width="271" height="26" viewBox="0 0 271 26" fill="none" xmlns="http://www.w3.org/2000/svg">
<path d="M29.1096 9.0542C29.1096 9.47096 29.0683 9.87776 28.9906 10.2696C28.7509 11.4933 28.154 12.5876 27.3141 13.4394C27.3141 13.4394 26.1352 14.6249 26.117 14.6415C24.9943 15.7556 23.4517 16.443 21.7487 16.443C21.6065 16.443 19.3116 16.536 17.4069 14.6681L12.9593 10.2015L18.5775 4.56111C20.0143 3.16636 21.805 2.81104 22.8929 2.81104C24.6025 2.81104 26.1501 3.50343 27.2744 4.62587C27.2744 4.62587 29.108 6.25806 29.108 9.05254L29.1096 9.0542Z" fill="url(#paint0_linear_159_3188)"/>
<path d="M22.458 17.441C21.633 17.5223 20.7947 17.4609 19.9862 17.2566C18.7561 16.9478 17.5921 16.3119 16.6298 15.3455C16.6397 15.3555 10.5834 9.27503 10.5834 9.27503C9.46072 8.16089 7.9181 7.47348 6.21511 7.47348C2.78266 7.47348 0 10.268 0 13.715C0 15.4252 0.684505 16.9744 1.79393 18.1001C1.81047 18.1184 1.82865 18.1367 1.84684 18.1533L7.8685 24.2005C10.2874 26.5998 14.1812 26.5998 16.6001 24.2005C16.6116 24.1889 23.5146 17.2566 23.5146 17.2566C23.1673 17.3447 22.8135 17.4061 22.458 17.441Z" fill="url(#paint1_linear_159_3188)"/>
<path d="M47.4077 6.37604L46.8984 6.34615C45.5807 6.34615 43.4246 7.21787 42.9154 10.0456V8.12114C42.9154 7.18798 42.4062 6.67824 41.4786 6.67824H39.8318C38.9026 6.67824 38.395 7.18964 38.395 8.12114V20.6921C38.395 21.6236 38.9043 22.135 39.8318 22.135H41.5993C42.5285 22.135 43.0361 21.6236 43.0361 20.6921V15.8205C43.0361 11.9401 44.6829 10.7678 46.4801 10.7678C46.7199 10.7678 46.9596 10.7977 47.2291 10.8276C47.8574 10.9173 48.2773 10.557 48.2773 9.71513V7.60973C48.2773 7.00866 48.1269 6.43748 47.4093 6.37604H47.4077Z" fill="#1B262D"/>
<path d="M57.5496 6.34615C52.3678 6.34615 49.104 10.1053 49.104 14.4672C49.104 18.8292 52.4588 22.4671 57.9695 22.4671C59.9453 22.4671 62.0121 22.0155 63.7796 20.722C64.5881 20.121 64.6476 19.309 64.0491 18.5867L63.72 18.165C63.1513 17.4726 62.4916 17.4128 61.6831 17.8645C60.5158 18.5253 59.3766 18.7976 58.2688 18.7976C55.3043 18.7976 53.4773 17.0226 53.5368 15.1879H64.259C65.1568 15.1879 65.757 14.7977 65.7273 13.9243C65.5173 8.99119 61.9245 6.34449 57.5512 6.34449L57.5496 6.34615ZM53.6558 12.6009C54.1651 10.5852 55.9921 9.86457 57.6091 9.86457C59.2261 9.86457 60.9638 10.5254 61.3821 12.6009H53.6558Z" fill="#1B262D"/>
<path d="M83.2615 6.67658H81.494C80.5648 6.67658 80.0572 7.18798 80.0572 8.11948V8.87165C78.9494 7.12655 77.1522 6.34449 75.1152 6.34449C70.8032 6.34449 67.7179 9.86291 67.7179 14.4041C67.7179 18.9454 70.8032 22.4638 75.1152 22.4638C77.1522 22.4638 78.9494 21.6817 80.0572 19.9682V20.6905C80.0572 21.622 80.5665 22.1334 81.494 22.1334H83.2615C84.1907 22.1334 84.6983 21.622 84.6983 20.6905V8.11948C84.6983 7.18632 84.189 6.67658 83.2615 6.67658ZM76.1932 18.7378C73.7677 18.7378 72.359 16.8134 72.359 14.4075C72.359 12.0015 73.7661 10.0771 76.1932 10.0771C78.6204 10.0771 80.1167 11.9418 80.1167 14.4075C80.1167 16.8732 78.5592 18.7378 76.1932 18.7378Z" fill="#1B262D"/>
<path d="M90.1942 0.390243H88.4565C87.5272 0.390243 87.0197 0.901651 87.0197 1.83314V20.6905C87.0197 21.622 87.5289 22.1334 88.4565 22.1334H90.1942C91.1234 22.1334 91.6624 21.622 91.6624 20.6905V1.83314C91.6624 0.899991 91.1234 0.390243 90.1942 0.390243Z" fill="#1B262D"/>
<path d="M96.3233 0C94.5261 0 93.5373 1.0527 93.5373 2.43583C93.5373 3.81895 94.6153 4.84177 96.3233 4.84177C98.0313 4.84177 99.1093 3.78907 99.1093 2.43583C99.1093 1.08259 98.0908 0 96.3233 0Z" fill="#1B262D"/>
<path d="M97.2227 6.67653H95.4536C94.6601 6.67653 94.0168 7.32254 94.0168 8.11943V20.6921C94.0168 21.489 94.6601 22.135 95.4536 22.135H97.2227C98.0163 22.135 98.6595 21.489 98.6595 20.6921V8.11943C98.6595 7.32254 98.0163 6.67653 97.2227 6.67653Z" fill="#1B262D"/>
<path d="M114.618 18.527H107.07L114.858 10.1352C115.367 9.56404 115.547 9.05263 115.547 8.33035V8.11948C115.547 7.18632 115.038 6.67658 114.11 6.67658H102.251C101.322 6.67658 100.814 7.18798 100.814 8.11948V8.84176C100.814 9.77325 101.323 10.2847 102.251 10.2847H108.929L101.112 18.7063C100.602 19.2775 100.422 19.7889 100.422 20.5112V20.6921C100.422 21.6236 100.931 22.135 101.859 22.135H114.616C115.546 22.135 116.053 21.6236 116.085 20.6921V19.9699C116.085 19.0384 115.546 18.527 114.616 18.527H114.618Z" fill="#1B262D"/>
<path d="M131.531 15.1879C132.428 15.1879 133.029 14.7977 132.999 13.9243C132.789 8.99119 129.196 6.34449 124.823 6.34449C119.641 6.34449 116.377 10.1037 116.377 14.4656C116.377 18.8275 119.732 22.4655 125.243 22.4655C127.219 22.4655 129.285 22.0138 131.053 20.7204C131.861 20.1193 131.921 19.3074 131.322 18.5851L130.993 18.1633C130.425 17.4709 129.765 17.4112 128.956 17.8628C127.789 18.5236 126.65 18.7959 125.542 18.7959C122.578 18.7959 120.751 17.021 120.81 15.1862H131.532L131.531 15.1879ZM124.882 9.86457C126.47 9.86457 128.237 10.5254 128.655 12.6009H120.929C121.438 10.5852 123.265 9.86457 124.882 9.86457Z" fill="#1B262D"/>
<path d="M145 4.75C145 4.33579 145.448 4 146 4C146.552 4 147 4.33579 147 4.75V21.25C147 21.6642 146.552 22 146 22C145.448 22 145 21.6642 145 21.25V4.75Z" fill="#FD314D"/>
<path d="M166.246 10.0078L164.476 14.2675C164.434 14.3714 164.414 14.413 164.414 14.4753C164.414 14.5584 164.476 14.6208 164.601 14.6208L167.932 14.6416C168.036 14.6416 168.099 14.5792 168.099 14.4961C168.099 14.4545 168.078 14.3922 168.036 14.2883L166.412 10.0078C166.392 9.96623 166.371 9.94546 166.329 9.94546C166.287 9.94546 166.267 9.96623 166.246 10.0078ZM173.033 17.8C173.408 18.7143 173.575 19.0883 173.97 19.4C174.345 19.7117 174.907 19.774 174.907 20.2104C174.907 20.5013 174.72 20.7714 174.137 20.7714H169.431C169.015 20.7714 168.703 20.5844 168.703 20.2519C168.703 19.6286 169.723 19.8156 169.723 18.9429C169.723 18.7766 169.681 18.6104 169.598 18.3818C169.452 17.987 168.953 16.6987 168.953 16.6987C168.848 16.4701 168.744 16.3247 168.37 16.3247H163.851C163.664 16.3247 163.539 16.4078 163.456 16.6364C163.081 17.5714 162.977 18.174 162.977 18.5688C162.977 19.1714 163.331 19.5039 163.539 19.6494C163.747 19.7948 164.08 19.8987 164.08 20.2312C164.08 20.626 163.664 20.7714 163.268 20.7714H159.791C159.375 20.7714 159 20.626 159 20.2312C159 20.0026 159.125 19.8779 159.312 19.7532C159.645 19.5455 159.999 19.3169 160.499 18.5273C160.832 17.987 161.186 17.3636 161.603 16.4286L166.204 6.1013C166.308 5.87273 166.454 5.76883 166.704 5.76883H168.036C168.307 5.76883 168.453 5.87273 168.536 6.08052C168.848 6.91169 172.575 16.6779 173.033 17.8Z" fill="#044166"/>
<path d="M182.828 18.2987C183.057 18.2987 183.245 18.4857 183.245 18.7351C183.245 18.9429 183.141 19.213 182.974 19.4416C182.329 20.3974 181.1 21 179.83 21C178.289 21 177.29 20.2727 176.811 19.3792C176.457 18.7143 176.332 17.8831 176.332 16.761C176.332 15.3896 176.499 13.9974 176.54 12.1065C176.54 11.9403 176.478 11.8779 176.311 11.8779C175.832 11.8779 175.041 11.8779 175.041 11.8779C174.854 11.8779 174.729 11.7532 174.729 11.5455V10.6519C174.729 10.4649 174.833 10.3403 175.083 10.2987C176.145 10.1325 176.728 9.73766 177.061 9.25974C177.415 8.76104 177.477 8.17922 177.56 7.76364C177.602 7.53507 177.706 7.43117 177.914 7.43117H179.268C179.455 7.43117 179.58 7.55584 179.58 7.74286C179.58 7.74286 179.58 9.65455 179.58 9.6961C179.58 10.2571 179.622 10.3195 180.121 10.3195C180.475 10.3195 180.725 10.2987 181.079 10.2571C181.454 10.2156 181.87 10.1532 182.266 10.1532C182.516 10.1532 182.995 10.174 182.995 10.5688C182.995 10.7351 182.912 10.9844 182.87 11.1922C182.745 11.7325 182.578 11.961 181.912 11.961C181.6 11.961 181.225 11.9195 180.85 11.8987C180.517 11.8779 180.08 11.8779 179.768 11.8779C179.622 11.8779 179.538 11.961 179.538 12.1065C179.518 12.6052 179.518 13.2078 179.518 13.8312C179.518 15.3688 179.58 17.0312 179.83 17.8C180.121 18.6935 180.767 18.9429 181.225 18.9429C182.058 18.9429 182.391 18.2987 182.828 18.2987Z" fill="#044166"/>
<path d="M189.253 6.97403C189.253 7.61818 187.899 8.96883 187.275 8.96883C186.629 8.96883 185.276 7.5974 185.276 6.97403C185.276 6.35065 186.629 5 187.275 5C187.899 5 189.253 6.35065 189.253 6.97403ZM189.794 19.6286C190.065 19.7948 190.314 19.8987 190.314 20.2312C190.314 20.5844 189.96 20.7714 189.502 20.7714H185.026C184.568 20.7714 184.214 20.5844 184.214 20.2312C184.214 19.9195 184.443 19.7948 184.734 19.6286C185.13 19.4 185.38 19.0883 185.505 18.7351C185.609 18.4442 185.713 18.0078 185.713 16.5532V13.8519C185.713 13.2494 185.692 12.813 185.567 12.4805C185.442 12.1481 185.213 11.961 184.797 11.7948C184.568 11.6909 184.151 11.587 184.151 11.213C184.151 10.9221 184.36 10.7766 184.838 10.6519C185.796 10.4234 186.983 10.0909 187.733 9.82078C187.858 9.77922 188.066 9.6961 188.274 9.6961C188.545 9.6961 188.815 9.84156 188.815 10.4026C188.815 10.4026 188.815 15.8675 188.815 16.5532C188.815 17.987 188.919 18.4442 189.024 18.7351C189.148 19.0883 189.398 19.4 189.794 19.6286Z" fill="#044166"/>
<path d="M202.97 9.92468C203.429 9.92468 203.803 10.0701 203.803 10.5065C203.803 10.7143 203.678 10.8597 203.491 10.9844C203.137 11.2338 202.804 11.4 202.263 12.2312C201.888 12.7714 201.555 13.4571 201.097 14.4338L198.265 20.6675C198.182 20.8545 198.057 20.9169 197.828 20.9169H195.933C195.746 20.9169 195.641 20.8545 195.558 20.6675C194.954 19.1922 192.477 13 192.477 13C192.06 12.0234 191.935 11.7532 191.581 11.4208C191.394 11.2338 191.144 11.1091 190.915 10.9844C190.707 10.8805 190.54 10.7558 190.54 10.5065C190.54 10.2156 190.728 9.92468 191.331 9.92468H195.85C196.287 9.92468 196.599 10.1117 196.599 10.4649C196.599 11.1506 195.558 10.9013 195.558 11.7948C195.558 11.961 195.6 12.1688 195.725 12.5013L197.703 17.4468C197.744 17.5506 197.765 17.5922 197.828 17.5922C197.911 17.5922 197.932 17.5299 197.973 17.4468L199.348 14.1844C199.743 13.2494 199.847 12.626 199.847 12.2312C199.847 10.9636 198.723 11.1299 198.723 10.5273C198.723 10.0494 199.139 9.92468 199.577 9.92468H202.97Z" fill="#044166"/>
<path d="M209.423 6.97403C209.423 7.61818 208.07 8.96883 207.445 8.96883C206.8 8.96883 205.446 7.5974 205.446 6.97403C205.446 6.35065 206.8 5 207.445 5C208.07 5 209.423 6.35065 209.423 6.97403ZM209.964 19.6286C210.235 19.7948 210.485 19.8987 210.485 20.2312C210.485 20.5844 210.131 20.7714 209.673 20.7714H205.196C204.738 20.7714 204.384 20.5844 204.384 20.2312C204.384 19.9195 204.613 19.7948 204.905 19.6286C205.3 19.4 205.55 19.0883 205.675 18.7351C205.779 18.4442 205.883 18.0078 205.883 16.5532V13.8519C205.883 13.2494 205.863 12.813 205.738 12.4805C205.613 12.1481 205.384 11.961 204.967 11.7948C204.738 11.6909 204.322 11.587 204.322 11.213C204.322 10.9221 204.53 10.7766 205.009 10.6519C205.967 10.4234 207.154 10.0909 207.903 9.82078C208.028 9.77922 208.236 9.6961 208.444 9.6961C208.715 9.6961 208.986 9.84156 208.986 10.4026C208.986 10.4026 208.986 15.8675 208.986 16.5532C208.986 17.987 209.09 18.4442 209.194 18.7351C209.319 19.0883 209.569 19.4 209.964 19.6286Z" fill="#044166"/>
<path d="M217.243 18.7558C218.451 18.7558 219.534 17.6338 219.534 15.1403C219.534 12.6675 218.555 11.2961 217.139 11.2961C215.328 11.2961 214.828 13.4156 214.828 15.0156C214.828 17.1766 215.723 18.7558 217.243 18.7558ZM223.49 18.9013C223.719 19.0052 224.156 19.1299 224.156 19.5039C224.156 19.7532 223.927 19.9195 223.448 20.0442C222.511 20.2727 221.428 20.6052 220.804 20.813C220.491 20.9169 220.283 21 220.075 21C219.804 21 219.534 20.8545 219.534 20.2935V19.4623C219.534 19.3169 219.471 19.2338 219.388 19.2338C219.325 19.2338 219.263 19.2753 219.2 19.3584C218.43 20.3143 217.222 21 215.911 21C213.329 21 211.58 18.7351 211.58 15.9091C211.58 12.8338 213.558 9.6961 217.014 9.6961C217.826 9.6961 218.638 9.88312 219.263 10.1532C219.367 10.1948 219.409 10.2156 219.45 10.2156C219.513 10.2156 219.534 10.174 219.534 10.0701V9.40519C219.534 8.8026 219.513 8.36623 219.388 8.03377C219.263 7.7013 219.034 7.51429 218.617 7.34805C218.409 7.26494 217.972 7.14026 217.972 6.78701C217.972 6.47533 218.201 6.32987 218.68 6.2052C219.617 5.97662 220.783 5.64416 221.512 5.37403C221.637 5.33247 221.845 5.24935 222.053 5.24935C222.324 5.24935 222.594 5.39481 222.594 5.95584V16.8442C222.594 17.4468 222.615 17.8831 222.74 18.2156C222.865 18.5481 223.094 18.7351 223.49 18.9013Z" fill="#044166"/>
<path d="M231.367 15.5974V15.3896C231.367 15.3065 231.346 15.2649 231.305 15.2649C231.263 15.2649 231.242 15.2857 231.18 15.3273C230.638 15.6597 229.743 15.9091 229.014 16.4701C228.411 16.9065 228.202 17.4052 228.202 17.8416C228.202 18.5688 228.723 19.0675 229.493 19.0675C230.118 19.0675 230.763 18.6935 231.096 18.0286C231.367 17.4675 231.367 16.8442 231.367 15.5974ZM235.552 19.1299C235.865 19.1507 236.073 19.2753 236.073 19.587C236.073 19.8987 235.844 20.1896 235.573 20.4182C235.115 20.7922 234.407 21 233.782 21C232.887 21 231.992 20.5429 231.721 19.4416C231.7 19.3584 231.7 19.3169 231.659 19.3169C231.638 19.3169 231.617 19.3377 231.555 19.4208C230.722 20.5013 229.41 21 228.161 21C226.516 21 224.871 20.1065 224.871 18.2364C224.871 17.2805 225.35 16.3039 226.37 15.7013C227.39 15.0987 228.827 14.7247 229.806 14.2883C230.472 13.9766 231.367 13.4571 231.367 12.5221C231.367 11.7948 230.867 11.2961 230.014 11.2961C229.535 11.2961 229.098 11.4416 228.744 11.6909C227.599 12.4597 227.515 13.6442 226.62 13.6442C225.933 13.6442 225.704 13.3117 225.704 12.3351C225.704 11.774 225.808 11.1299 226.099 10.7766C226.787 9.9039 229.014 9.6961 230.076 9.6961C232.221 9.6961 234.719 10.6727 234.719 13.2078C234.719 14.6 234.615 15.8468 234.615 17.1974C234.615 18.5065 234.615 19.0883 235.552 19.1299Z" fill="#044166"/>
<path d="M242.66 18.7558C243.867 18.7558 244.95 17.6338 244.95 15.1403C244.95 12.6675 243.971 11.2961 242.556 11.2961C240.744 11.2961 240.244 13.4156 240.244 15.0156C240.244 17.1766 241.14 18.7558 242.66 18.7558ZM248.906 18.9013C249.135 19.0052 249.572 19.1299 249.572 19.5039C249.572 19.7532 249.343 19.9195 248.864 20.0442C247.928 20.2727 246.845 20.6052 246.22 20.813C245.908 20.9169 245.7 21 245.491 21C245.221 21 244.95 20.8545 244.95 20.2935V19.4623C244.95 19.3169 244.888 19.2338 244.804 19.2338C244.742 19.2338 244.679 19.2753 244.617 19.3584C243.847 20.3143 242.639 21 241.327 21C238.745 21 236.996 18.7351 236.996 15.9091C236.996 12.8338 238.974 9.6961 242.431 9.6961C243.243 9.6961 244.055 9.88312 244.679 10.1532C244.784 10.1948 244.825 10.2156 244.867 10.2156C244.929 10.2156 244.95 10.174 244.95 10.0701V9.40519C244.95 8.8026 244.929 8.36623 244.804 8.03377C244.679 7.7013 244.45 7.51429 244.034 7.34805C243.826 7.26494 243.388 7.14026 243.388 6.78701C243.388 6.47533 243.618 6.32987 244.096 6.2052C245.033 5.97662 246.199 5.64416 246.928 5.37403C247.053 5.33247 247.261 5.24935 247.469 5.24935C247.74 5.24935 248.011 5.39481 248.011 5.95584V16.8442C248.011 17.4468 248.032 17.8831 248.157 18.2156C248.281 18.5481 248.511 18.7351 248.906 18.9013Z" fill="#044166"/>
<path d="M253.827 13.4156C253.806 13.5403 253.806 13.561 253.806 13.6026C253.806 13.7065 253.869 13.7896 254.014 13.7896C254.056 13.7896 256.43 13.7896 256.43 13.7896C257.179 13.7896 257.741 13.6649 257.741 12.8753C257.741 12.1065 257.117 11.2545 256.055 11.2545C254.889 11.2545 254.056 12.1065 253.827 13.4156ZM260.157 18.0286C260.386 18.0286 260.615 18.2156 260.615 18.4649C260.615 18.9221 259.99 19.587 259.366 20.0026C258.429 20.626 257.179 21 255.93 21C252.89 21 250.6 18.9013 250.6 15.639C250.6 12.5221 252.911 9.6961 256.159 9.6961C258.512 9.6961 260.823 11.3377 260.823 13.9351C260.823 15.1403 260.282 15.3273 259.053 15.3273H254.056C253.931 15.3273 253.827 15.3688 253.827 15.5143C253.827 15.5558 253.827 15.5974 253.848 15.7636C253.869 15.9714 253.952 16.6364 254.389 17.3221C255.097 18.4234 256.18 18.8805 257.429 18.8805C259.074 18.8805 259.657 18.0286 260.157 18.0286Z" fill="#044166"/>
<path d="M261.984 17.8831C261.984 17.3636 262.151 16.8442 262.776 16.8442C263.234 16.8442 263.484 17.239 264.046 17.9455C264.795 18.9013 265.649 19.3377 266.503 19.3377C267.148 19.3377 268.064 18.9844 268.064 18.174C268.064 16.2208 262.338 17.3013 262.338 13.3948C262.338 10.9844 264.587 9.6961 266.961 9.6961C268.085 9.6961 269.084 9.96623 269.543 10.1948C270.313 10.6104 270.479 11.4 270.479 12.0026C270.479 12.8961 270.355 13.3117 269.647 13.3117C269.376 13.3117 269.168 13.2078 268.876 12.7714C268.46 12.1481 267.794 11.2545 266.544 11.2545C265.67 11.2545 265.108 11.7325 265.108 12.3766C265.108 14.1844 271 13.3532 271 17.3221C271 18.2779 270.563 19.2753 269.501 20.0234C268.501 20.7299 267.273 21 266.107 21C264.629 21 263.275 20.5636 262.692 20.0857C262.151 19.6078 261.984 18.6519 261.984 17.8831Z" fill="#044166"/>
<defs>
<linearGradient id="paint0_linear_159_3188" x1="-0.0038633" y1="14.4036" x2="29.1099" y2="14.4036" gradientUnits="userSpaceOnUse">
<stop stop-color="#CE1C5A"/>
<stop offset="1" stop-color="#FD314D"/>
</linearGradient>
<linearGradient id="paint1_linear_159_3188" x1="-0.0038633" y1="14.4036" x2="29.1099" y2="14.4036" gradientUnits="userSpaceOnUse">
<stop stop-color="#CE1C5A"/>
<stop offset="1" stop-color="#FD314D"/>
</linearGradient>
</defs>
</svg>
